<svg width="100%" height="100%" viewBox="0 0 24 24" fill="none" xmlns="http://www.w3.org/2000/svg">
<path d="M14.0487 22.5214C14.7721 22.5214 15.2842 21.8991 15.6558 20.9349L22.2352 3.74829C22.4161 3.28629 22.5267 2.87443 22.5267 2.53286C22.5267 1.88015 22.1148 1.47858 21.4617 1.47858C21.1201 1.47858 20.7082 1.57886 20.2462 1.75972L2.96966 8.37858C2.12537 8.7 1.47266 9.21215 1.47266 9.94543C1.47266 10.8694 2.17594 11.181 3.14023 11.4724L10.3925 13.6016L12.5019 20.7634C12.8032 21.7779 13.1148 22.5214 14.0491 22.5214M10.8451 12.0754L3.9138 9.95572C3.75309 9.90515 3.70294 9.86486 3.70294 9.79458C3.70294 9.72429 3.7428 9.67458 3.89366 9.61415L17.4738 4.47129C18.2774 4.17001 19.0509 3.76801 19.7941 3.42643C19.1315 3.96901 18.3078 4.61186 17.7554 5.16429L10.8451 12.0754ZM14.2098 20.3121C14.1297 20.3121 14.0894 20.2414 14.0392 20.0807L11.9195 13.1503L18.8302 6.23958C19.3728 5.69701 20.0457 4.85315 20.5784 4.17043C20.2368 4.93329 19.8348 5.70686 19.5237 6.52072L14.3808 20.1009C14.3204 20.2517 14.2801 20.3121 14.2098 20.3121Z" fill="#4091FD"/>
</svg>
