<svg width="100%" height="100%" viewBox="0 0 100 80" fill="none" xmlns="http://www.w3.org/2000/svg">
<rect y="0.5" width="100" height="80" fill="#525960"/>
<path d="M53.7354 28.9961H54.2627V32.1162H54.0137C52.832 32.1162 51.792 32.2969 50.8936 32.6582C50.0049 33.0195 49.2627 33.5273 48.667 34.1816C48.0811 34.8262 47.6367 35.5928 47.334 36.4814C47.0312 37.3604 46.8799 38.3223 46.8799 39.3672V42.8242C46.8799 43.6348 46.9629 44.3477 47.1289 44.9629C47.3047 45.5684 47.5439 46.0811 47.8467 46.501C48.1592 46.9111 48.5205 47.2188 48.9307 47.4238C49.3506 47.6289 49.8096 47.7314 50.3076 47.7314C50.8057 47.7314 51.2549 47.6289 51.6553 47.4238C52.0557 47.2188 52.3975 46.9307 52.6807 46.5596C52.9736 46.1787 53.1934 45.7344 53.3398 45.2266C53.4961 44.7188 53.5742 44.1621 53.5742 43.5566C53.5742 42.9609 53.501 42.4092 53.3545 41.9014C53.208 41.3936 52.9932 40.9492 52.71 40.5684C52.4268 40.1777 52.0752 39.8799 51.6553 39.6748C51.2451 39.46 50.7764 39.3525 50.249 39.3525C49.5654 39.3525 48.9551 39.5137 48.418 39.8359C47.8809 40.1484 47.4561 40.5586 47.1436 41.0664C46.8311 41.5742 46.6602 42.1113 46.6309 42.6777L45.3271 42.0332C45.376 41.2031 45.5518 40.4414 45.8545 39.748C46.167 39.0547 46.582 38.4492 47.0996 37.9316C47.627 37.4141 48.2471 37.0137 48.96 36.7305C49.6826 36.4473 50.4834 36.3057 51.3623 36.3057C52.3779 36.3057 53.2666 36.501 54.0283 36.8916C54.79 37.2725 55.4199 37.7949 55.918 38.459C56.4258 39.123 56.8066 39.8896 57.0605 40.7588C57.3145 41.6182 57.4414 42.5264 57.4414 43.4834C57.4414 44.5088 57.2754 45.4658 56.9434 46.3545C56.6211 47.2432 56.1523 48.0195 55.5371 48.6836C54.9219 49.3477 54.1797 49.8652 53.3105 50.2363C52.4414 50.6074 51.4648 50.793 50.3809 50.793C49.2383 50.793 48.2129 50.5781 47.3047 50.1484C46.4062 49.7188 45.6348 49.123 44.9902 48.3613C44.3457 47.5996 43.8525 46.7109 43.5107 45.6953C43.1689 44.6797 42.998 43.5811 42.998 42.3994V40.8467C42.998 39.1768 43.2275 37.624 43.6865 36.1885C44.1455 34.7529 44.8242 33.498 45.7227 32.4238C46.6309 31.3398 47.7539 30.5 49.0918 29.9043C50.4297 29.2988 51.9775 28.9961 53.7354 28.9961Z" fill="white"/>
</svg>
