<svg width="100%" height="100%" viewBox="0 0 180 180" fill="none" xmlns="http://www.w3.org/2000/svg">
<rect width="180" height="180" rx="90" fill="#D6E7FF"/>
<path d="M41.8284 89.7859C40.2663 88.2239 40.2663 85.6912 41.8284 84.1291L50.8596 75.0979C52.4217 73.5358 54.9544 73.5358 56.5165 75.0979L94.4978 113.079L82.6382 124.939C81.0761 126.501 78.5434 126.501 76.9813 124.939L41.8284 89.7859Z" fill="#63A6FF"/>
<path d="M123.277 55.3284C124.839 53.7663 127.372 53.7663 128.934 55.3284L137.965 64.3596C139.527 65.9217 139.527 68.4544 137.965 70.0165L82.7206 125.261C81.1585 126.823 78.6258 126.823 77.0637 125.261L65.2041 113.401L123.277 55.3284Z" fill="#1B78F3"/>
</svg>
