<svg width="100%" height="100%" viewBox="0 0 56 56" fill="none" xmlns="http://www.w3.org/2000/svg">
<path d="M37.1344 38.6333H34.6677V36.1666H37.1344V38.6333ZM29.7344 38.6333H32.201V36.1666H29.7344V38.6333ZM42.0677 38.6333H39.601V36.1666H42.0677V38.6333Z" fill="#525960"/>
<path fill-rule="evenodd" clip-rule="evenodd" d="M15.4 24.8V17.8C15.4 16.513 15.6535 15.2387 16.146 14.0497C16.6385 12.8607 17.3603 11.7804 18.2704 10.8704C19.1804 9.96034 20.2607 9.23848 21.4497 8.74598C22.6387 8.25348 23.913 8 25.2 8C26.487 8 27.7613 8.25348 28.9503 8.74598C30.1393 9.23848 31.2196 9.96034 32.1296 10.8704C33.0397 11.7804 33.7615 12.8607 34.254 14.0497C34.7465 15.2387 35 16.513 35 17.8V24.8H39.2C40.3139 24.8 41.3822 25.2425 42.1699 26.0302C42.9575 26.8178 43.4 27.8861 43.4 29V30.54C44.9824 30.8613 46.4051 31.7198 47.4269 32.97C48.4488 34.2203 49.007 35.7853 49.007 37.4C49.007 39.0147 48.4488 40.5797 47.4269 41.83C46.4051 43.0802 44.9824 43.9387 43.4 44.26V45.8C43.4 46.9139 42.9575 47.9822 42.1699 48.7698C41.3822 49.5575 40.3139 50 39.2 50H11.2C10.0861 50 9.0178 49.5575 8.23015 48.7698C7.4425 47.9822 7 46.9139 7 45.8V29C7 27.8861 7.4425 26.8178 8.23015 26.0302C9.0178 25.2425 10.0861 24.8 11.2 24.8H15.4ZM18.2 17.8C18.2 15.9435 18.9375 14.163 20.2503 12.8503C21.563 11.5375 23.3435 10.8 25.2 10.8C27.0565 10.8 28.837 11.5375 30.1497 12.8503C31.4625 14.163 32.2 15.9435 32.2 17.8V24.8H18.2V17.8ZM30.8 33.2C29.6861 33.2 28.6178 33.6425 27.8302 34.4302C27.0425 35.2178 26.6 36.2861 26.6 37.4C26.6 38.5139 27.0425 39.5822 27.8302 40.3699C28.6178 41.1575 29.6861 41.6 30.8 41.6H42C43.1139 41.6 44.1822 41.1575 44.9699 40.3699C45.7575 39.5822 46.2 38.5139 46.2 37.4C46.2 36.2861 45.7575 35.2178 44.9699 34.4302C44.1822 33.6425 43.1139 33.2 42 33.2H30.8Z" fill="#525960" stroke="#525960" stroke-width="2"/>
</svg>
