<svg width="100%" height="100%" viewBox="0 0 100 80" fill="none" xmlns="http://www.w3.org/2000/svg">
<rect y="0.5" width="100" height="80" fill="#525960"/>
<path d="M57.4121 47.4531V50.5H42.9688V47.8926L49.8975 40.4072C50.6201 39.5869 51.1914 38.874 51.6113 38.2686C52.0312 37.6631 52.3291 37.1162 52.5049 36.6279C52.6904 36.1299 52.7832 35.6562 52.7832 35.207C52.7832 34.5527 52.666 33.9814 52.4316 33.4932C52.1973 32.9951 51.8555 32.6094 51.4062 32.3359C50.9668 32.0625 50.4248 31.9258 49.7803 31.9258C49.0674 31.9258 48.457 32.0918 47.9492 32.4238C47.4512 32.7461 47.0703 33.1953 46.8066 33.7715C46.5527 34.3477 46.4258 35.0068 46.4258 35.749H42.5439C42.5439 34.4893 42.8369 33.3418 43.4229 32.3066C44.0088 31.2617 44.8486 30.4268 45.9424 29.8018C47.0361 29.1768 48.335 28.8643 49.8389 28.8643C51.3037 28.8643 52.5439 29.1084 53.5596 29.5967C54.5752 30.0752 55.3467 30.7588 55.874 31.6475C56.4014 32.5361 56.665 33.5957 56.665 34.8262C56.665 35.5098 56.5527 36.1836 56.3281 36.8477C56.1035 37.5117 55.7861 38.1709 55.376 38.8252C54.9756 39.4697 54.4971 40.124 53.9404 40.7881C53.3838 41.4521 52.7637 42.1309 52.0801 42.8242L47.9199 47.4531H57.4121Z" fill="white"/>
</svg>
