<svg width="100%" height="100%" viewBox="0 0 32 32" fill="none" xmlns="http://www.w3.org/2000/svg">
<path d="M29.0876 18.5666C28.5957 21.0683 27.3975 23.3767 25.6348 25.2189C23.872 27.061 21.6186 28.3596 19.1409 28.9612C19.8209 28.1586 20.4103 27.1186 20.8996 25.9386C21.3863 24.7652 21.7929 23.4039 22.0943 21.9119C24.3303 21.3359 26.3556 20.4506 28.0543 19.3186C28.4116 19.0795 28.7561 18.8288 29.0876 18.5666ZM2.91428 18.5666C3.24584 18.8288 3.59028 19.0795 3.94761 19.3186C5.64495 20.4506 7.67028 21.3359 9.90761 21.9119C10.2076 23.4039 10.6143 24.7652 11.1023 25.9386C11.5903 27.1172 12.1796 28.1586 12.8596 28.9612C10.3822 28.3594 8.12905 27.0606 6.36658 25.2186C4.60411 23.3765 3.40611 21.0681 2.91428 18.5666ZM19.2369 22.4599C19.0291 23.2976 18.7613 24.1193 18.4356 24.9186C17.9729 26.0359 17.4636 26.8586 16.9809 27.3799C16.4876 27.9132 16.1489 27.9999 16.0009 27.9999C15.8529 27.9999 15.5156 27.9132 15.0209 27.3799C14.5383 26.8599 14.0289 26.0359 13.5663 24.9186C13.2406 24.1193 12.9728 23.2976 12.7649 22.4599C13.8156 22.5959 14.8983 22.6666 16.0009 22.6666C17.0829 22.6669 18.1638 22.5978 19.2369 22.4599ZM19.9516 14.3052C20.0558 16.1006 19.9925 17.9017 19.7623 19.6852C18.5663 19.8906 17.3049 19.9999 16.0009 19.9999C14.7402 19.9998 13.4816 19.8946 12.2383 19.6852C12.003 17.9021 11.94 16.1005 12.0503 14.3052C13.3116 14.5412 14.6369 14.6666 16.0009 14.6666C17.3262 14.6691 18.6488 14.5481 19.9516 14.3052ZM28.0889 10.3666C28.7023 11.6812 29.1089 13.1132 29.2623 14.6186C28.5943 15.5159 27.6929 16.3546 26.5743 17.0986C25.4143 17.8719 24.0463 18.5252 22.5223 19.0146C22.6959 17.2217 22.7147 15.4173 22.5783 13.6212C23.8369 13.2024 25.0386 12.6287 26.1556 11.9132C26.8517 11.4657 27.4996 10.9474 28.0889 10.3666ZM3.91295 10.3666C4.48628 10.9359 5.13961 11.4532 5.84628 11.9132C6.96331 12.6287 8.16498 13.2024 9.42361 13.6212C9.28744 15.4173 9.30573 17.2217 9.47828 19.0146C7.95428 18.5252 6.58628 17.8732 5.42628 17.0999C4.30895 16.3546 3.40761 15.5159 2.73828 14.6186C2.89295 13.1119 3.29828 11.6812 3.91161 10.3652L3.91295 10.3666ZM16.0009 3.99991C16.1476 3.99991 16.4863 4.08791 16.9809 4.62124C17.4636 5.14124 17.9729 5.96524 18.4356 7.08257C18.9556 8.33991 19.3876 9.89324 19.6649 11.6439C18.5156 11.8746 17.2849 11.9999 16.0009 11.9999C14.7704 12.0023 13.5427 11.8831 12.3356 11.6439C12.6129 9.89324 13.0449 8.33991 13.5663 7.08391C14.0289 5.96524 14.5383 5.14257 15.0196 4.62124C15.5156 4.08791 15.8529 3.99991 16.0009 3.99991ZM19.1409 3.03857C22.1462 3.76767 24.8045 5.5187 26.6609 7.99191C26.0932 8.64564 25.4334 9.21335 24.7023 9.67724C23.9296 10.1735 23.1063 10.586 22.2463 10.9079C21.9383 9.09324 21.4729 7.44791 20.8996 6.06257C20.4103 4.88257 19.8223 3.84124 19.1409 3.03857ZM12.8609 3.03857C12.1809 3.84124 11.5916 4.88257 11.1023 6.06257C10.5289 7.44924 10.0623 9.09324 9.75561 10.9079C8.89558 10.586 8.07227 10.1735 7.29961 9.67724C6.56803 9.21346 5.90779 8.64574 5.33961 7.99191C7.19635 5.51844 9.85523 3.76738 12.8609 3.03857Z" fill="#7F8A94"/>
</svg>
