<svg width="100%" height="100%" viewBox="0 0 40 40" fill="none" xmlns="http://www.w3.org/2000/svg">
<path fill-rule="evenodd" clip-rule="evenodd" d="M8.5469 28.3333H33.332V8.83333H6.66536V30.356L8.5469 28.3333ZM3.77839 33.4595L3.77991 33.4579L3.77839 33.4595ZM9.9987 31.6667L6.21901 35.7298C5.18778 36.8384 3.33203 36.1087 3.33203 34.5947V7.16667C3.33203 6.24619 4.07822 5.5 4.9987 5.5H34.9987C35.9192 5.5 36.6654 6.24619 36.6654 7.16667V30C36.6654 30.9205 35.9192 31.6667 34.9987 31.6667H9.9987Z" fill="white"/>
<path fill-rule="evenodd" clip-rule="evenodd" d="M19.9987 25.5C19.0782 25.5 18.332 24.7538 18.332 23.8333V23C18.332 22.0795 19.0782 21.3333 19.9987 21.3333C20.9192 21.3333 21.6654 22.0795 21.6654 23V23.8333C21.6654 24.7538 20.9192 25.5 19.9987 25.5Z" fill="white"/>
<path fill-rule="evenodd" clip-rule="evenodd" d="M19.9987 18.8333C19.0782 18.8333 18.332 18.0871 18.332 17.1667V12.1667C18.332 11.2462 19.0782 10.5 19.9987 10.5C20.9192 10.5 21.6654 11.2462 21.6654 12.1667V17.1667C21.6654 18.0871 20.9192 18.8333 19.9987 18.8333Z" fill="white"/>
</svg>
