<svg width="100%" height="100%" viewBox="0 0 32 32" fill="none" xmlns="http://www.w3.org/2000/svg">
<path fill-rule="evenodd" clip-rule="evenodd" d="M16.0013 29.5834C23.3651 29.5834 29.3346 23.6139 29.3346 16.2501C29.3346 8.88628 23.3651 2.91675 16.0013 2.91675C8.63751 2.91675 2.66797 8.88628 2.66797 16.2501C2.66797 23.6139 8.63751 29.5834 16.0013 29.5834ZM17.6012 10.6501C17.6012 11.5337 16.8849 12.2501 16.0012 12.2501C15.1176 12.2501 14.4012 11.5337 14.4012 10.6501C14.4012 9.76642 15.1176 9.05008 16.0012 9.05008C16.8849 9.05008 17.6012 9.76643 17.6012 10.6501ZM17.6012 22.6501C17.6012 23.5337 16.8849 24.2501 16.0012 24.2501C15.1176 24.2501 14.4012 23.5337 14.4012 22.6501V15.1834C14.4012 14.2998 15.1176 13.5834 16.0012 13.5834C16.8849 13.5834 17.6012 14.2998 17.6012 15.1834V22.6501Z" fill="#7F8A94"/>
</svg>
