<svg width="100%" height="100%" viewBox="0 0 100 80" fill="none" xmlns="http://www.w3.org/2000/svg">
<rect y="0.5" width="100" height="80" fill="#525960"/>
<path d="M46.8066 40.6855L43.7158 39.9385L44.9023 29.1719H56.6357V32.3799H48.1104L47.5537 37.3604C47.8564 37.1748 48.2959 36.9893 48.8721 36.8037C49.458 36.6084 50.1172 36.5107 50.8496 36.5107C51.8652 36.5107 52.7734 36.6768 53.5742 37.0088C54.375 37.3311 55.0537 37.7998 55.6104 38.415C56.1768 39.0303 56.6016 39.7822 56.8848 40.6709C57.1777 41.5498 57.3242 42.5459 57.3242 43.6592C57.3242 44.6357 57.1777 45.5537 56.8848 46.4131C56.6016 47.2627 56.167 48.0195 55.5811 48.6836C54.9951 49.3379 54.2578 49.8555 53.3691 50.2363C52.4805 50.6074 51.4355 50.793 50.2344 50.793C49.3262 50.793 48.4521 50.6611 47.6123 50.3975C46.7822 50.124 46.0352 49.7285 45.3711 49.2109C44.707 48.6836 44.1748 48.0391 43.7744 47.2773C43.3838 46.5156 43.1689 45.6416 43.1299 44.6553H46.9531C47.0215 45.3096 47.1973 45.8662 47.4805 46.3252C47.7637 46.7842 48.1348 47.1357 48.5938 47.3799C49.0625 47.624 49.6045 47.7461 50.2197 47.7461C50.7764 47.7461 51.2549 47.6436 51.6553 47.4385C52.0654 47.2236 52.4023 46.9258 52.666 46.5449C52.9297 46.1641 53.125 45.7148 53.252 45.1973C53.3789 44.6797 53.4424 44.1133 53.4424 43.498C53.4424 42.9023 53.3691 42.3604 53.2227 41.8721C53.0762 41.374 52.8516 40.9443 52.5488 40.583C52.2461 40.2217 51.8652 39.9434 51.4062 39.748C50.957 39.5527 50.4297 39.4551 49.8242 39.4551C49.0137 39.4551 48.3887 39.5771 47.9492 39.8213C47.5195 40.0654 47.1387 40.3535 46.8066 40.6855Z" fill="white"/>
</svg>
