<svg width="100%" height="100%" viewBox="0 0 32 33" fill="none" xmlns="http://www.w3.org/2000/svg">
<path d="M27 23.75V5.58523C27 4.56818 26.1693 3.75 25.1495 3.75H6.85625C5.83073 3.75 5 4.57386 5 5.58523V23.75H27ZM9.76667 13.4091L11.2276 11.9716C11.4682 11.733 11.8578 11.733 12.0984 11.9773L14.4646 14.3409L19.9187 8.97727C20.1594 8.73864 20.549 8.73864 20.7896 8.98295L22.2391 10.4318C22.4797 10.6705 22.4797 11.0568 22.2333 11.2955L14.8828 18.5227C14.6422 18.7614 14.2526 18.7614 14.012 18.517L9.76667 14.2727C9.52031 14.0341 9.52604 13.6477 9.76667 13.4091Z" fill="#7F8A94"/>
<rect x="3" y="25.75" width="26" height="4" rx="1" fill="#7F8A94"/>
</svg>
