<svg width="56" height="56" viewBox="0 0 56 56" fill="none" xmlns="http://www.w3.org/2000/svg">
<rect width="56" height="56" rx="28" fill="#F3F5F6"/>
<path d="M28.9776 15.975V18.25H31.554C32.0119 18.25 32.4594 18.3878 32.8377 18.6439L35.0514 20.1441C35.1062 20.1805 35.1671 20.1991 35.2341 20.2H40.5852C40.8446 20.2 41.0935 20.3027 41.277 20.4856C41.4605 20.6684 41.5635 20.9164 41.5635 21.175C41.5635 21.4336 41.4605 21.6816 41.277 21.8644C41.0935 22.0473 40.8446 22.15 40.5852 22.15H38.5266L42.9176 32.134C43.0055 32.3336 43.0237 32.5568 42.9693 32.768C42.9149 32.9791 42.7911 33.166 42.6176 33.2988C42.4871 33.395 42.3523 33.4843 42.2132 33.5666C41.883 33.7645 41.5385 33.9379 41.1826 34.0853C40.0027 34.577 38.7359 34.8285 37.4569 34.825C36.1783 34.8305 34.9117 34.5794 33.7326 34.0866C33.3767 33.9388 33.0322 33.765 32.702 33.5666C32.5632 33.4873 32.4295 33.3996 32.3015 33.304L32.295 33.2988C32.1215 33.166 31.9977 32.9791 31.9433 32.768C31.8889 32.5568 31.9071 32.3336 31.995 32.134L36.3885 22.15H35.2327C34.7749 22.15 34.3274 22.0122 33.9491 21.7561L31.7354 20.2559C31.6814 20.2195 31.6178 20.2 31.5527 20.2H28.9776V39.05H34.831C35.0904 39.05 35.3393 39.1527 35.5228 39.3356C35.7063 39.5184 35.8093 39.7664 35.8093 40.025C35.8093 40.2836 35.7063 40.5316 35.5228 40.7144C35.3393 40.8973 35.0904 41 34.831 41H21.1675C20.908 41 20.6592 40.8973 20.4757 40.7144C20.2922 40.5316 20.1891 40.2836 20.1891 40.025C20.1891 39.7664 20.2922 39.5184 20.4757 39.3356C20.6592 39.1527 20.908 39.05 21.1675 39.05H27.0208V20.2H24.4444C24.3793 20.2 24.3157 20.2195 24.2618 20.2559L22.0494 21.7561C21.671 22.0122 21.2236 22.15 20.7657 22.15H19.6099L24.0035 32.134C24.0886 32.328 24.1079 32.5442 24.0588 32.7501C24.0096 32.9561 23.8945 33.1404 23.7309 33.2754C23.6265 33.3599 23.5221 33.4392 23.3265 33.5653C22.9968 33.7785 22.6514 33.9667 22.2933 34.1282C21.1154 34.6625 19.8357 34.9374 18.5415 34.9342C17.2473 34.9374 15.9676 34.6625 14.7897 34.1282C14.4317 33.9667 14.0863 33.7785 13.7566 33.5653C13.6177 33.476 13.4832 33.3801 13.3535 33.278C13.1908 33.1417 13.0764 32.957 13.0271 32.751C12.9778 32.5451 12.9961 32.3288 13.0795 32.134L17.4718 22.15H15.4146C15.1551 22.15 14.9063 22.0473 14.7228 21.8644C14.5393 21.6816 14.4362 21.4336 14.4362 21.175C14.4362 20.9164 14.5393 20.6684 14.7228 20.4856C14.9063 20.3027 15.1551 20.2 15.4146 20.2H20.7657C20.8318 20.2 20.8931 20.1814 20.9496 20.1441L23.1608 18.6439C23.5391 18.3865 23.9879 18.25 24.4457 18.25H27.0208V15.975C27.0208 15.7164 27.1239 15.4684 27.3074 15.2856C27.4909 15.1027 27.7397 15 27.9992 15C28.2587 15 28.5076 15.1027 28.6911 15.2856C28.8745 15.4684 28.9776 15.7164 28.9776 15.975ZM19.5 26.5C20.5264 27.0454 18.4467 29.0035 19.6099 29C18.5 30.5 15.9736 26.5454 17 26L18.5415 24.5784L19.5 26.5ZM35.4506 26.8362C35.5576 26.8882 41.2201 24.8467 35.8093 27C36.5007 27.2899 37.5117 27.585 38.7732 27.585C39.9232 27.5881 36.9632 29.9959 38 29.5H37L35.4506 26.8362Z" fill="#66707A"/>
</svg>
