<svg width="100%" height="100%" viewBox="0 0 32 32" fill="none" xmlns="http://www.w3.org/2000/svg">
<rect width="100%" height="100%" rx="50%" fill="#F3F5F6"/>
<path fill-rule="evenodd" clip-rule="evenodd" d="M15.6187 12.3586L13.6629 13.9588C13.2545 14.2929 12.7432 14.4754 12.2155 14.4754H9.52373V17.5229H12.2136C12.7412 17.5229 13.2526 17.7054 13.661 18.0395L15.6187 19.6413L15.6187 12.3586ZM12.698 12.7795C12.5619 12.8908 12.3914 12.9517 12.2155 12.9517H8.76186C8.3411 12.9517 8 13.2928 8 13.7135V18.2847C8 18.7055 8.3411 19.0466 8.76187 19.0466H12.2136C12.3895 19.0466 12.56 19.1075 12.6961 19.2188L15.8981 21.8386C16.3955 22.2456 17.1424 21.8917 17.1424 21.249L17.1424 10.7509C17.1424 10.1081 16.3955 9.75421 15.8981 10.1612L12.698 12.7795Z" fill="#525960"/>
<path fill-rule="evenodd" clip-rule="evenodd" d="M18.5355 13.0454C18.833 12.7478 19.3154 12.7478 19.6129 13.0454C21.3981 14.8305 21.3981 17.7249 19.6129 19.51C19.3154 19.8075 18.833 19.8075 18.5355 19.51C18.238 19.2125 18.238 18.7301 18.5355 18.4326C19.7256 17.2425 19.7256 15.3129 18.5355 14.1228C18.238 13.8253 18.238 13.3429 18.5355 13.0454Z" fill="#525960"/>
<path fill-rule="evenodd" clip-rule="evenodd" d="M20.6911 20.5879C23.0713 18.2077 23.0713 14.3486 20.6911 11.9684C20.3936 11.6709 20.3936 11.1885 20.6911 10.8909C20.9886 10.5934 21.471 10.5934 21.7685 10.8909C24.7438 13.8662 24.7438 18.6901 21.7685 21.6653C21.471 21.9629 20.9886 21.9629 20.6911 21.6653C20.3936 21.3678 20.3936 20.8854 20.6911 20.5879Z" fill="#525960"/>
</svg>
