<svg width="100%" height="100%" viewBox="0 0 20 20" fill="none" xmlns="http://www.w3.org/2000/svg">
<path fill-rule="evenodd" clip-rule="evenodd" d="M10.0013 18.3337C14.6037 18.3337 18.3346 14.6027 18.3346 10.0003C18.3346 5.39795 14.6037 1.66699 10.0013 1.66699C5.39893 1.66699 1.66797 5.39795 1.66797 10.0003C1.66797 14.6027 5.39893 18.3337 10.0013 18.3337ZM10.0013 5.83366C10.5536 5.83366 11.0013 6.20676 11.0013 6.66699V10.8337C11.0013 11.2939 10.5536 11.667 10.0013 11.667C9.44906 11.667 9.00134 11.2939 9.00134 10.8337V6.66699C9.00134 6.20676 9.44906 5.83366 10.0013 5.83366ZM10.0013 14.5003C10.5536 14.5003 11.0013 14.0526 11.0013 13.5003C11.0013 12.948 10.5536 12.5003 10.0013 12.5003C9.44906 12.5003 9.00134 12.948 9.00134 13.5003C9.00134 14.0526 9.44906 14.5003 10.0013 14.5003Z" fill="#E22A21"/>
</svg>
