<svg width="100%" height="100%" viewBox="0 0 100 80" fill="none" xmlns="http://www.w3.org/2000/svg">
<rect y="0.5" width="100" height="80" fill="#7F8A94"/>
<path d="M54.9991 37.1667L48.3324 43.8334M48.3324 37.1667L54.9991 43.8334M43.1991 28.8334C42.7181 28.8332 42.2429 28.937 41.8059 29.1378C41.3689 29.3387 40.9805 29.6316 40.6674 29.9967L33.5257 38.33C33.0075 38.9343 32.7227 39.704 32.7227 40.5C32.7227 41.2961 33.0075 42.0658 33.5257 42.67L40.6674 51.0034C40.9805 51.3684 41.3689 51.6614 41.8059 51.8622C42.2429 52.063 42.7181 52.1669 43.1991 52.1667H61.6657C62.5498 52.1667 63.3976 51.8155 64.0228 51.1904C64.6479 50.5653 64.9991 49.7174 64.9991 48.8334V32.1667C64.9991 31.2827 64.6479 30.4348 64.0228 29.8097C63.3976 29.1846 62.5498 28.8334 61.6657 28.8334H43.1991Z" stroke="white" stroke-width="3" stroke-linecap="round" stroke-linejoin="round"/>
</svg>
