<svg width="100%" height="100%" viewBox="0 0 20 20" fill="none" xmlns="http://www.w3.org/2000/svg">
<path d="M19.1975 0H0.5V20H19.1975V0Z" fill="#FFB800"/>
<path d="M15.2201 0.235596H13.5547V1.07229H15.2201V0.235596Z" fill="white"/>
<path d="M16.888 1.07251H15.2227V1.90925H16.888V1.07251Z" fill="white"/>
<path d="M15.2201 1.90918H13.5547V2.74587H15.2201V1.90918Z" fill="white"/>
<path d="M16.888 2.74585H15.2227V3.58254H16.888V2.74585Z" fill="white"/>
<path d="M15.2282 3.58252C14.5607 3.58252 14.0195 4.16134 14.0195 4.87541V6.93301C14.0195 7.64704 14.5606 8.22591 15.2282 8.22591C15.8958 8.22591 16.4369 7.64704 16.4369 6.93301V4.87541C16.4369 4.16134 15.8958 3.58252 15.2282 3.58252ZM15.6297 7.49614H14.8268V5.6511H15.6297V7.49614Z" fill="white"/>
<path d="M3.08565 10.0681H7.96212V11.2603L4.83185 14.7513H8.07622V16.033H2.78516V14.7961L5.88267 11.3417H3.08561L3.08565 10.0681Z" fill="white"/>
<path d="M8.92188 10.0681H10.6488V16.0329H8.92188V10.0681Z" fill="white"/>
<path d="M11.875 10.0681H14.7392C15.363 10.0681 15.8303 10.2268 16.141 10.5442C16.4516 10.8615 16.6069 11.3132 16.6069 11.8991C16.6069 12.5012 16.4376 12.9719 16.0991 13.3109C15.7606 13.65 15.2439 13.8195 14.5491 13.8195H13.6058V16.0329H11.875V10.0681ZM13.6058 12.6111H14.028C14.3601 12.6111 14.5934 12.5494 14.7279 12.426C14.8623 12.3026 14.9295 12.1446 14.9295 11.9519C14.9295 11.7648 14.8711 11.6061 14.7545 11.4759C14.6378 11.3457 14.4184 11.2806 14.0964 11.2806H13.6057V12.6111H13.6058Z" fill="white"/>
</svg>
