<svg width="100%" height="100%" viewBox="0 0 56 56" fill="none" xmlns="http://www.w3.org/2000/svg">
<path d="M27.9133 2.25C16.5383 2.25 6.82578 9.6 3.23828 19.75H52.7633C49.0883 9.6 39.3758 2.25 27.9133 2.25Z" fill="#F9F9F9"/>
<path d="M27.9133 54.75C39.3758 54.75 49.0883 47.4 52.6758 37.25H3.23828C6.82578 47.4875 16.5383 54.75 27.9133 54.75Z" fill="#ED4C5C"/>
<path d="M3.2375 19.75C2.275 22.4625 1.75 25.4375 1.75 28.5C1.75 31.5625 2.275 34.5375 3.2375 37.25H52.7625C53.725 34.5375 54.25 31.5625 54.25 28.5C54.25 25.4375 53.725 22.4625 52.7625 19.75H3.2375Z" fill="#428BC1"/>
</svg>
