<svg width="100%" height="100%" viewBox="0 0 20 20" fill="none" xmlns="http://www.w3.org/2000/svg">
<path d="M20.8006 0H0.800781V20H20.8006V0Z" fill="#ED1F24"/>
<path d="M16.9705 11.4428C16.9565 11.3405 16.8743 11.2121 16.786 11.1258C16.5332 10.877 15.9775 10.7466 15.1309 10.7346C14.5572 10.7286 13.8671 10.7787 13.1409 10.8811C12.8159 10.6945 12.4808 10.4899 12.218 10.2431C11.5099 9.58309 10.9201 8.66629 10.5509 7.65721C10.575 7.56292 10.5951 7.48067 10.6151 7.39641C10.6151 7.39641 11.0124 5.13351 10.908 4.36717C10.894 4.26285 10.884 4.23276 10.8559 4.15051L10.8218 4.06224C10.7134 3.81147 10.5008 3.54666 10.1678 3.56071L9.97118 3.55469H9.96717C9.59403 3.55469 9.29311 3.74527 9.21286 4.02813C8.97213 4.91885 9.22089 6.25292 9.67227 7.97819L9.55591 8.25905C9.23292 9.04946 8.82769 9.84388 8.4706 10.544L8.42446 10.6343C8.04731 11.3705 7.70626 11.9965 7.39532 12.5261L7.07634 12.6946C7.05227 12.7066 6.5046 12.9975 6.3762 13.0737C5.28688 13.7257 4.56468 14.464 4.44431 15.0498C4.40619 15.2384 4.43428 15.4771 4.62887 15.5874L4.93781 15.7439C5.07222 15.8101 5.21466 15.8442 5.3591 15.8442C6.13547 15.8442 7.03622 14.8773 8.27801 12.7106C9.71038 12.2452 11.3434 11.856 12.7737 11.6434C13.8631 12.2552 15.2031 12.6826 16.0497 12.6826C16.2002 12.6826 16.3306 12.6685 16.4349 12.6404C16.5974 12.5963 16.7338 12.504 16.8181 12.3796C16.9826 12.1329 17.0147 11.7918 16.9705 11.4428ZM5.19059 15.2564C5.33101 14.8692 5.89273 14.1029 6.72126 13.4248C6.77342 13.3827 6.90181 13.2623 7.01816 13.15C6.15152 14.5322 5.57175 15.0819 5.19059 15.2564ZM10.0976 3.95591C10.3463 3.95591 10.4888 4.58383 10.5008 5.17363C10.5128 5.76343 10.3744 6.17669 10.2039 6.48363C10.0615 6.03024 9.99325 5.31606 9.99325 4.84864C9.99325 4.84864 9.98322 3.95591 10.0976 3.95591ZM8.63309 12.0085C8.80763 11.6975 8.98818 11.3685 9.17274 11.0215C9.62412 10.1689 9.90899 9.50284 10.1196 8.95517C10.5409 9.72151 11.0665 10.3735 11.6824 10.8951C11.7606 10.9593 11.8429 11.0255 11.9271 11.0917C10.6733 11.3384 9.58801 11.6414 8.63309 12.0085ZM16.5432 11.9383C16.467 11.9844 16.2483 12.0125 16.1079 12.0125C15.6545 12.0125 15.0908 11.8059 14.3024 11.4668C14.6053 11.4448 14.8842 11.4327 15.1329 11.4327C15.5883 11.4327 15.7227 11.4307 16.1701 11.5451C16.6155 11.6594 16.6215 11.8901 16.5432 11.9383Z" fill="white"/>
</svg>
