<svg width="100%" height="100%" viewBox="0 0 24 24" fill="none" xmlns="http://www.w3.org/2000/svg">
<path fill-rule="evenodd" clip-rule="evenodd" d="M4.53561 3.26385C4.18414 2.91238 3.61429 2.91238 3.26282 3.26385C2.91135 3.61532 2.91135 4.18517 3.26282 4.53664L5.34489 6.61871C2.08518 8.75167 1.19922 12.0002 1.19922 12.0002C1.19922 12.0002 3.16286 19.2002 11.9992 19.2002C13.9947 19.2002 15.6397 18.833 16.9907 18.2645L19.4628 20.7366C19.8143 21.0881 20.3841 21.0881 20.7356 20.7366C21.0871 20.3852 21.0871 19.8153 20.7356 19.4638L4.53561 3.26385ZM15.5927 16.8665L14.4808 15.7547C13.7695 16.2258 12.9164 16.5002 11.9992 16.5002C9.51394 16.5002 7.49922 14.4855 7.49922 12.0002C7.49922 11.083 7.7736 10.23 8.24476 9.51858L6.65114 7.92496C5.80201 8.42738 5.14358 9.01769 4.63261 9.59417C3.96974 10.342 3.53511 11.0921 3.26857 11.6505C3.20718 11.7791 3.15521 11.8966 3.11182 12.0002C3.15521 12.1039 3.20718 12.2213 3.26857 12.3499C3.53511 12.9084 3.96974 13.6584 4.63261 14.4063C5.92053 15.8593 8.14534 17.4002 11.9992 17.4002C13.4017 17.4002 14.5884 17.1962 15.5927 16.8665ZM9.56234 10.8362C9.39367 11.1886 9.29922 11.5834 9.29922 12.0002C9.29922 13.4914 10.508 14.7002 11.9992 14.7002C12.416 14.7002 12.8108 14.6058 13.1633 14.4371L9.56234 10.8362Z" fill="#7F8A94"/>
<path d="M22.799 11.9947C22.7273 11.7423 20.6763 4.80057 11.9992 4.80057C10.7974 4.80057 9.72278 4.93373 8.76286 5.16383L10.3066 6.70757C10.8327 6.63832 11.396 6.60057 11.9992 6.60057C15.8538 6.60057 18.0791 8.14177 19.3672 9.59511C20.0302 10.3431 20.465 11.0933 20.7316 11.6519C20.793 11.7806 20.845 11.8981 20.8884 12.0017C20.845 12.1054 20.793 12.2229 20.7316 12.3516C20.465 12.9102 20.0302 13.6604 19.3672 14.4084C19.1655 14.636 18.9408 14.8657 18.6904 15.0914L19.9645 16.3654C22.0905 14.4148 22.7586 12.1509 22.799 12.0088V11.9947Z" fill="#7F8A94"/>
<path d="M16.4249 12.8258C16.4742 12.5589 16.5 12.2836 16.5 12.0023C16.5 9.51666 14.485 7.50162 11.9993 7.50162C11.718 7.50162 11.4428 7.52742 11.1758 7.57678L13.164 9.56498C13.7199 9.83109 14.1706 10.2818 14.4367 10.8376L16.4249 12.8258Z" fill="#7F8A94"/>
</svg>
