<svg width="100%" height="100%" viewBox="0 0 24 24" fill="none" xmlns="http://www.w3.org/2000/svg">
<path fill-rule="evenodd" clip-rule="evenodd" d="M16.4992 12C16.4992 14.4853 14.4845 16.5 11.9992 16.5C9.51394 16.5 7.49922 14.4853 7.49922 12C7.49922 9.51477 9.51394 7.50005 11.9992 7.50005C14.4845 7.50005 16.4992 9.51477 16.4992 12ZM14.6992 12C14.6992 13.4912 13.4904 14.7 11.9992 14.7C10.508 14.7 9.29922 13.4912 9.29922 12C9.29922 10.5089 10.508 9.30005 11.9992 9.30005C13.4904 9.30005 14.6992 10.5089 14.6992 12Z" fill="#7F8A94"/>
<path fill-rule="evenodd" clip-rule="evenodd" d="M11.9992 19.2C3.16286 19.2 1.19922 12 1.19922 12C1.19922 12 3.16286 4.80005 11.9992 4.80005C20.8356 4.80005 22.7992 12 22.7992 12C22.7992 12 20.8356 19.2 11.9992 19.2ZM3.26857 12.3497C3.20719 12.2211 3.15521 12.1037 3.11182 12.0001C3.15521 11.8964 3.20719 11.779 3.26857 11.6504C3.53512 11.0919 3.96974 10.3419 4.63261 9.594C5.92054 8.14096 8.14534 6.60005 11.9992 6.60005C15.8531 6.60005 18.0779 8.14096 19.3658 9.594C20.0287 10.3419 20.4633 11.0919 20.7299 11.6504C20.7913 11.779 20.8432 11.8964 20.8866 12.0001C20.8432 12.1037 20.7913 12.2211 20.7299 12.3497C20.4633 12.9082 20.0287 13.6582 19.3658 14.4061C18.0779 15.8591 15.8531 17.4 11.9992 17.4C8.14534 17.4 5.92054 15.8591 4.63261 14.4061C3.96974 13.6582 3.53512 12.9082 3.26857 12.3497Z" fill="#7F8A94"/>
</svg>
