<svg width="100%" height="100%" viewBox="0 0 24 24" fill="none" xmlns="http://www.w3.org/2000/svg">
<path fill-rule="evenodd" clip-rule="evenodd" d="M10.2932 6.2924C10.6837 5.90188 11.3169 5.90188 11.7074 6.2924C12.0979 6.68293 12.0979 7.31609 11.7074 7.70662L8.41415 10.9999H16.0008C16.5531 10.9999 17.0008 11.4476 17.0008 11.9999C17.0008 12.5522 16.5531 12.9999 16.0008 12.9999H8.4144L11.7074 16.2929C12.0979 16.6834 12.0979 17.3166 11.7074 17.7071C11.3169 18.0976 10.6837 18.0976 10.2932 17.7071L5.30442 12.7183C5.11669 12.5365 5 12.2818 5 11.9999C5 11.8599 5.02874 11.7267 5.08064 11.6058C5.12934 11.4921 5.20011 11.3855 5.29296 11.2926L10.2932 6.2924Z" fill="#4091FD"/>
</svg>
