<svg width="100%" height="100%" viewBox="0 0 24 32" fill="none" xmlns="http://www.w3.org/2000/svg">
<path d="M6.5 9.5C6.5 9.06902 6.6712 8.6557 6.97595 8.35095C7.2807 8.0462 7.69402 7.875 8.125 7.875H14.625C14.8405 7.87505 15.0471 7.96068 15.1994 8.11306L19.2619 12.1756C19.4143 12.3279 19.5 12.5345 19.5 12.75V22.5C19.5 22.931 19.3288 23.3443 19.024 23.649C18.7193 23.9538 18.306 24.125 17.875 24.125H8.125C7.69402 24.125 7.2807 23.9538 6.97595 23.649C6.6712 23.3443 6.5 22.931 6.5 22.5V9.5ZM17.5386 12.75L14.625 9.83637V12.75H17.5386ZM13 9.5H8.125V22.5H17.875V14.375H13.8125C13.597 14.375 13.3903 14.2894 13.238 14.137C13.0856 13.9847 13 13.778 13 13.5625V9.5ZM9.75 16.8125C9.75 16.597 9.8356 16.3903 9.98798 16.238C10.1403 16.0856 10.347 16 10.5625 16H15.4375C15.653 16 15.8597 16.0856 16.012 16.238C16.1644 16.3903 16.25 16.597 16.25 16.8125C16.25 17.028 16.1644 17.2347 16.012 17.387C15.8597 17.5394 15.653 17.625 15.4375 17.625H10.5625C10.347 17.625 10.1403 17.5394 9.98798 17.387C9.8356 17.2347 9.75 17.028 9.75 16.8125ZM9.75 20.0625C9.75 19.847 9.8356 19.6403 9.98798 19.488C10.1403 19.3356 10.347 19.25 10.5625 19.25H15.4375C15.653 19.25 15.8597 19.3356 16.012 19.488C16.1644 19.6403 16.25 19.847 16.25 20.0625C16.25 20.278 16.1644 20.4847 16.012 20.637C15.8597 20.7894 15.653 20.875 15.4375 20.875H10.5625C10.347 20.875 10.1403 20.7894 9.98798 20.637C9.8356 20.4847 9.75 20.278 9.75 20.0625Z" fill="#0765E1"/>
</svg>
