<svg width="100%" height="100%" viewBox="0 0 100 80" fill="none" xmlns="http://www.w3.org/2000/svg">
<rect y="0.5" width="100" height="80" fill="#525960"/>
<path d="M45.8838 47.4971H46.1621C47.4219 47.4971 48.4863 47.3359 49.3555 47.0137C50.2344 46.6914 50.9424 46.2373 51.4795 45.6514C52.0264 45.0557 52.4219 44.3477 52.666 43.5273C52.9199 42.6973 53.0469 41.7793 53.0469 40.7734V36.9062C53.0469 36.0859 52.9639 35.3682 52.7979 34.7529C52.6318 34.1279 52.3975 33.6055 52.0947 33.1855C51.8018 32.7656 51.4551 32.4531 51.0547 32.248C50.6543 32.0332 50.2246 31.9258 49.7656 31.9258C49.2578 31.9258 48.8086 32.043 48.418 32.2773C48.0273 32.5117 47.6953 32.834 47.4219 33.2441C47.1582 33.6445 46.9531 34.1084 46.8066 34.6357C46.6699 35.1631 46.6016 35.7197 46.6016 36.3057C46.6016 36.8721 46.665 37.4141 46.792 37.9316C46.9287 38.4492 47.1289 38.9082 47.3926 39.3086C47.666 39.709 48.0078 40.0264 48.418 40.2607C48.8281 40.4854 49.3066 40.5977 49.8535 40.5977C50.3711 40.5977 50.8398 40.5 51.2598 40.3047C51.6895 40.0996 52.0605 39.8311 52.373 39.499C52.6855 39.1572 52.9248 38.7812 53.0908 38.3711C53.2666 37.9512 53.3643 37.5264 53.3838 37.0967L54.7461 37.6826C54.7461 38.3955 54.5947 39.0986 54.292 39.792C53.999 40.4854 53.584 41.1152 53.0469 41.6816C52.5195 42.2383 51.9043 42.6875 51.2012 43.0293C50.498 43.3613 49.7412 43.5273 48.9307 43.5273C47.9248 43.5273 47.0361 43.3418 46.2646 42.9707C45.4932 42.5996 44.8438 42.0869 44.3164 41.4326C43.7988 40.7686 43.4082 40.0068 43.1445 39.1475C42.8809 38.2783 42.749 37.3506 42.749 36.3643C42.749 35.3389 42.9102 34.377 43.2324 33.4785C43.5547 32.5703 44.0186 31.7744 44.624 31.0908C45.2393 30.3975 45.9814 29.8555 46.8506 29.4648C47.7197 29.0645 48.6963 28.8643 49.7803 28.8643C50.9033 28.8643 51.9043 29.084 52.7832 29.5234C53.6621 29.9629 54.4092 30.5732 55.0244 31.3545C55.6396 32.126 56.1084 33.0391 56.4307 34.0938C56.7627 35.1484 56.9287 36.3008 56.9287 37.5508V38.9131C56.9287 40.2314 56.7969 41.4814 56.5332 42.6631C56.2695 43.8447 55.8643 44.9238 55.3174 45.9004C54.7705 46.877 54.0723 47.7217 53.2227 48.4346C52.3828 49.1475 51.377 49.6992 50.2051 50.0898C49.043 50.4707 47.7148 50.6611 46.2207 50.6611H45.8838V47.4971Z" fill="white"/>
</svg>
