<svg width="100%" height="100%" viewBox="0 0 20 20" fill="none" xmlns="http://www.w3.org/2000/svg">
<path d="M20.8006 0H0.800781V20H20.8006V0Z" fill="#5D6C82"/>
<path d="M16.5674 9.61807L11.1152 15.0702C10.4473 15.7382 9.54137 16.1134 8.59677 16.1134C7.65217 16.1134 6.74626 15.7382 6.07833 15.0702C5.4104 14.4023 5.03516 13.4964 5.03516 12.5518C5.03516 11.6072 5.4104 10.7013 6.07833 10.0334L11.5305 4.58119C11.9758 4.1359 12.5797 3.88574 13.2095 3.88574C13.8392 3.88574 14.4431 4.1359 14.8884 4.58119C15.3337 5.02648 15.5839 5.63042 15.5839 6.26015C15.5839 6.88988 15.3337 7.49383 14.8884 7.93911L9.43032 13.3913C9.20767 13.6139 8.9057 13.739 8.59084 13.739C8.27597 13.739 7.974 13.6139 7.75136 13.3913C7.52871 13.1686 7.40363 12.8667 7.40363 12.5518C7.40363 12.2369 7.52871 11.935 7.75136 11.7123L12.7882 6.68138" stroke="#F3F5F8" stroke-width="0.75" stroke-linecap="round" stroke-linejoin="round"/>
</svg>
