<svg width="100%" height="100%" viewBox="0 0 40 40" fill="none" xmlns="http://www.w3.org/2000/svg">
<path fill-rule="evenodd" clip-rule="evenodd" d="M30 7.16667C30 6.24619 29.2538 5.5 28.3333 5.5C27.4129 5.5 26.6667 6.24619 26.6667 7.16667V8.74076H13.3333L13.3333 7.16667C13.3333 6.24619 12.5871 5.5 11.6667 5.5C10.7462 5.5 10 6.24619 10 7.16667L10 8.74076C7.23858 8.74076 5 10.9793 5 13.7408V30.5C5 33.2614 7.23858 35.5 10 35.5H30C32.7614 35.5 35 33.2614 35 30.5V13.7408C35 10.9793 32.7614 8.74076 30 8.74076V7.16667ZM31.6667 18.8333V30.5C31.6667 31.4205 30.9205 32.1667 30 32.1667H10C9.07952 32.1667 8.33333 31.4205 8.33333 30.5V18.8333H31.6667ZM31.6667 15.5V13.7408C31.6667 12.8203 30.9205 12.0741 30 12.0741H10C9.07953 12.0741 8.33333 12.8203 8.33333 13.7408V15.5H31.6667Z" fill="white"/>
</svg>
