<svg width="100%" height="100%" viewBox="0 0 100 80" fill="none" xmlns="http://www.w3.org/2000/svg">
<rect y="0.5" width="100" height="80" fill="#525960"/>
<path d="M57.1191 44.6699C57.1191 45.998 56.8066 47.1211 56.1816 48.0391C55.5664 48.9473 54.7217 49.6357 53.6475 50.1045C52.583 50.5635 51.3721 50.793 50.0146 50.793C48.667 50.793 47.4512 50.5635 46.3672 50.1045C45.293 49.6357 44.4385 48.9473 43.8037 48.0391C43.1787 47.1211 42.8662 45.998 42.8662 44.6699C42.8662 43.7812 43.042 42.9756 43.3936 42.2529C43.7549 41.5303 44.2529 40.9102 44.8877 40.3926C45.5225 39.8652 46.2744 39.4648 47.1436 39.1914C48.0127 38.9082 48.96 38.7666 49.9854 38.7666C51.3525 38.7666 52.5732 39.0156 53.6475 39.5137C54.7314 40.002 55.5811 40.6904 56.1963 41.5791C56.8115 42.458 57.1191 43.4883 57.1191 44.6699ZM53.2227 44.4355C53.2227 43.752 53.0859 43.1611 52.8125 42.6631C52.5488 42.1553 52.1729 41.7646 51.6846 41.4912C51.1963 41.2178 50.6299 41.0811 49.9854 41.0811C49.3311 41.0811 48.7598 41.2178 48.2715 41.4912C47.793 41.7646 47.417 42.1553 47.1436 42.6631C46.8799 43.1611 46.748 43.752 46.748 44.4355C46.748 45.1289 46.8799 45.7246 47.1436 46.2227C47.417 46.7109 47.7979 47.0869 48.2861 47.3506C48.7744 47.6143 49.3506 47.7461 50.0146 47.7461C50.6787 47.7461 51.25 47.6143 51.7285 47.3506C52.207 47.0869 52.5732 46.7109 52.8271 46.2227C53.0908 45.7246 53.2227 45.1289 53.2227 44.4355ZM56.6504 34.7969C56.6504 35.8711 56.3672 36.8281 55.8008 37.668C55.2344 38.498 54.4482 39.1475 53.4424 39.6162C52.4463 40.085 51.3037 40.3193 50.0146 40.3193C48.7256 40.3193 47.5732 40.085 46.5576 39.6162C45.5518 39.1475 44.7607 38.498 44.1846 37.668C43.6182 36.8281 43.335 35.8711 43.335 34.7969C43.335 33.5273 43.623 32.4531 44.1992 31.5742C44.7754 30.6855 45.5615 30.0117 46.5576 29.5527C47.5635 29.0938 48.7061 28.8643 49.9854 28.8643C51.2842 28.8643 52.4365 29.0938 53.4424 29.5527C54.4482 30.0117 55.2344 30.6855 55.8008 31.5742C56.3672 32.4531 56.6504 33.5273 56.6504 34.7969ZM52.7832 34.958C52.7832 34.3525 52.6709 33.8252 52.4463 33.376C52.2217 32.917 51.8994 32.5605 51.4795 32.3066C51.0693 32.0527 50.5713 31.9258 49.9854 31.9258C49.4189 31.9258 48.9307 32.0479 48.5205 32.292C48.1104 32.5361 47.793 32.8877 47.5684 33.3467C47.3438 33.7959 47.2314 34.333 47.2314 34.958C47.2314 35.5732 47.3438 36.1104 47.5684 36.5693C47.793 37.0283 48.1104 37.3896 48.5205 37.6533C48.9404 37.9072 49.4385 38.0342 50.0146 38.0342C50.5908 38.0342 51.084 37.9072 51.4941 37.6533C51.9043 37.3896 52.2217 37.0283 52.4463 36.5693C52.6709 36.1104 52.7832 35.5732 52.7832 34.958Z" fill="white"/>
</svg>
