<svg width="100%" height="100%" viewBox="0 0 40 40" fill="none" xmlns="http://www.w3.org/2000/svg">
<path d="M4.9987 3.83325C4.07822 3.83325 3.33203 4.57944 3.33203 5.49992V32.1666C3.33203 33.0871 4.07822 33.8333 4.9987 33.8333C5.91917 33.8333 6.66536 33.0871 6.66536 32.1666V7.16659H26.6654C27.5858 7.16659 28.332 6.42039 28.332 5.49992C28.332 4.57944 27.5858 3.83325 26.6654 3.83325H4.9987Z" fill="white"/>
<path fill-rule="evenodd" clip-rule="evenodd" d="M26.5482 10.4999H11.6654C10.7449 10.4999 9.9987 11.2461 9.9987 12.1666V38.8333C9.9987 39.7537 10.7449 40.4999 11.6654 40.4999H33.332C34.2525 40.4999 34.9987 39.7537 34.9987 38.8333V18.7081C34.9987 18.2556 34.8147 17.8225 34.4889 17.5084L27.7051 10.9668C27.3945 10.6673 26.9798 10.4999 26.5482 10.4999ZM26.6654 20.4999C25.7449 20.4999 24.9987 19.7537 24.9987 18.8333V13.8333H13.332V37.1666H31.6654V20.4999H26.6654Z" fill="white"/>
</svg>
