<svg width="57" height="56" viewBox="0 0 57 56" fill="none" xmlns="http://www.w3.org/2000/svg">
<rect x="0.5" width="56" height="56" rx="28" fill="#F3F5F6"/>
<path fill-rule="evenodd" clip-rule="evenodd" d="M39.5385 33.8018C39.5369 33.8609 39.5312 33.9197 39.5212 33.9778C39.5472 34.1115 39.5433 34.2492 39.5098 34.3811C39.4762 34.513 39.414 34.6359 39.3274 34.7409C39.2408 34.846 39.1321 34.9306 39.009 34.9886C38.8859 35.0467 38.7515 35.0769 38.6154 35.0769H21.3846C21.1826 35.0769 20.9825 35.1167 20.7959 35.194C20.6092 35.2713 20.4396 35.3847 20.2968 35.5275C20.1539 35.6704 20.0406 35.84 19.9633 36.0266C19.8859 36.2133 19.8462 36.4134 19.8462 36.6154C19.8462 36.8174 19.8859 37.0175 19.9633 37.2041C20.0406 37.3908 20.1539 37.5604 20.2968 37.7032C20.4396 37.8461 20.6092 37.9594 20.7959 38.0367C20.9825 38.1141 21.1826 38.1538 21.3846 38.1538H38.6154C38.8602 38.1538 39.095 38.2511 39.2681 38.4242C39.4412 38.5973 39.5385 38.8321 39.5385 39.0769C39.5385 39.3217 39.4412 39.5565 39.2681 39.7296C39.095 39.9028 38.8602 40 38.6154 40H21.3846C20.487 40 19.6261 39.6434 18.9913 39.0087C18.3566 38.3739 18 37.513 18 36.6154V19.3846C18 18.487 18.3566 17.6261 18.9913 16.9913C19.6261 16.3566 20.487 16 21.3846 16H37.8769C38.7951 16 39.5385 16.7434 39.5385 17.6615V33.8018ZM25.0769 20.9231C24.8321 20.9231 24.5973 21.0203 24.4242 21.1934C24.2511 21.3666 24.1538 21.6013 24.1538 21.8462C24.1538 22.091 24.2511 22.3258 24.4242 22.4989C24.5973 22.672 24.8321 22.7692 25.0769 22.7692H32.4615C32.7064 22.7692 32.9411 22.672 33.1143 22.4989C33.2874 22.3258 33.3846 22.091 33.3846 21.8462C33.3846 21.6013 33.2874 21.3666 33.1143 21.1934C32.9411 21.0203 32.7064 20.9231 32.4615 20.9231H25.0769Z" fill="#66707A"/>
</svg>
