<svg width="100%" height="100%" viewBox="0 0 24 36" fill="none" xmlns="http://www.w3.org/2000/svg">
<path d="M6.5 11.5C6.5 11.069 6.6712 10.6557 6.97595 10.351C7.2807 10.0462 7.69402 9.875 8.125 9.875H14.625C14.8405 9.87505 15.0471 9.96068 15.1994 10.1131L19.2619 14.1756C19.4143 14.3279 19.5 14.5345 19.5 14.75V24.5C19.5 24.931 19.3288 25.3443 19.024 25.649C18.7193 25.9538 18.306 26.125 17.875 26.125H8.125C7.69402 26.125 7.2807 25.9538 6.97595 25.649C6.6712 25.3443 6.5 24.931 6.5 24.5V11.5ZM17.5386 14.75L14.625 11.8364V14.75H17.5386ZM13 11.5H8.125V24.5H17.875V16.375H13.8125C13.597 16.375 13.3903 16.2894 13.238 16.137C13.0856 15.9847 13 15.778 13 15.5625V11.5ZM9.75 18.8125C9.75 18.597 9.8356 18.3903 9.98798 18.238C10.1403 18.0856 10.347 18 10.5625 18H15.4375C15.653 18 15.8597 18.0856 16.012 18.238C16.1644 18.3903 16.25 18.597 16.25 18.8125C16.25 19.028 16.1644 19.2347 16.012 19.387C15.8597 19.5394 15.653 19.625 15.4375 19.625H10.5625C10.347 19.625 10.1403 19.5394 9.98798 19.387C9.8356 19.2347 9.75 19.028 9.75 18.8125ZM9.75 22.0625C9.75 21.847 9.8356 21.6403 9.98798 21.488C10.1403 21.3356 10.347 21.25 10.5625 21.25H15.4375C15.653 21.25 15.8597 21.3356 16.012 21.488C16.1644 21.6403 16.25 21.847 16.25 22.0625C16.25 22.278 16.1644 22.4847 16.012 22.637C15.8597 22.7894 15.653 22.875 15.4375 22.875H10.5625C10.347 22.875 10.1403 22.7894 9.98798 22.637C9.8356 22.4847 9.75 22.278 9.75 22.0625Z" fill="#00B4E5"/>
</svg>
