<svg width="100%" height="100%" viewBox="0 0 100 80" fill="none" xmlns="http://www.w3.org/2000/svg">
<rect y="0.5" width="100" height="80" fill="#525960"/>
<path d="M57.0898 38.0049V41.5938C57.0898 43.2344 56.9238 44.6357 56.5918 45.7979C56.2598 46.96 55.7812 47.9121 55.1562 48.6543C54.5312 49.3867 53.7842 49.9287 52.915 50.2803C52.0459 50.6221 51.0791 50.793 50.0146 50.793C49.165 50.793 48.374 50.6855 47.6416 50.4707C46.9092 50.2461 46.25 49.9043 45.6641 49.4453C45.0879 48.9766 44.5898 48.3809 44.1699 47.6582C43.7598 46.9355 43.4424 46.0713 43.2178 45.0654C43.0029 44.0596 42.8955 42.9023 42.8955 41.5938V38.0049C42.8955 36.3643 43.0615 34.9678 43.3936 33.8154C43.7354 32.6631 44.2188 31.7207 44.8438 30.9883C45.4688 30.2559 46.2158 29.7236 47.085 29.3916C47.9541 29.0498 48.9209 28.8789 49.9854 28.8789C50.8447 28.8789 51.6357 28.9863 52.3584 29.2012C53.0908 29.416 53.7451 29.7529 54.3213 30.2119C54.9072 30.6611 55.4053 31.2471 55.8154 31.9697C56.2256 32.6826 56.5381 33.542 56.7529 34.5479C56.9775 35.5439 57.0898 36.6963 57.0898 38.0049ZM53.2227 42.1211V37.4629C53.2227 36.6426 53.1738 35.9297 53.0762 35.3242C52.9883 34.709 52.8564 34.1865 52.6807 33.7568C52.5049 33.3271 52.2852 32.9805 52.0215 32.7168C51.7578 32.4434 51.4551 32.2432 51.1133 32.1162C50.7715 31.9893 50.3955 31.9258 49.9854 31.9258C49.4775 31.9258 49.0234 32.0283 48.623 32.2334C48.2227 32.4287 47.8857 32.7412 47.6123 33.1709C47.3389 33.6006 47.1289 34.1719 46.9824 34.8848C46.8457 35.5879 46.7773 36.4473 46.7773 37.4629V42.1211C46.7773 42.9414 46.8213 43.6592 46.9092 44.2744C47.0068 44.8896 47.1436 45.417 47.3193 45.8564C47.5049 46.2959 47.7246 46.6572 47.9785 46.9404C48.2422 47.2139 48.5449 47.4189 48.8867 47.5557C49.2285 47.6826 49.6045 47.7461 50.0146 47.7461C50.5322 47.7461 50.9863 47.6436 51.377 47.4385C51.7773 47.2334 52.1143 46.9111 52.3877 46.4717C52.6611 46.0225 52.8662 45.4414 53.0029 44.7285C53.1494 44.0059 53.2227 43.1367 53.2227 42.1211Z" fill="white"/>
</svg>
