<svg width="100%" height="100%" viewBox="0 0 40 40" fill="none" xmlns="http://www.w3.org/2000/svg">
<rect width="40" height="40" rx="20" fill="#F3F5F6"/>
<path fill-rule="evenodd" clip-rule="evenodd" d="M23.4761 13.4632V19.5237C23.4761 21.4364 21.9256 22.9869 20.013 22.9869C18.1003 22.9869 16.5498 21.4364 16.5498 19.5237V13.4632C16.5498 11.5505 18.1003 10 20.013 10C21.9256 10 23.4761 11.5505 23.4761 13.4632ZM21.5714 19.5237V13.4632C21.5714 12.6025 20.8737 11.9047 20.013 11.9047C19.1523 11.9047 18.4545 12.6025 18.4545 13.4632V19.5237C18.4545 20.3844 19.1523 21.0822 20.013 21.0822C20.8737 21.0822 21.5714 20.3844 21.5714 19.5237Z" fill="#525960"/>
<path d="M13.9524 18.5714C14.4784 18.5714 14.9047 18.9978 14.9047 19.5237C14.9047 22.3449 17.1918 24.6319 20.0129 24.6319C22.8341 24.6319 25.1211 22.3449 25.1211 19.5237C25.1211 18.9978 25.5475 18.5714 26.0735 18.5714C26.5995 18.5714 27.0259 18.9978 27.0259 19.5237C27.0259 23.0739 24.3879 26.0079 20.9652 26.4726V29.0476C20.9652 29.5736 20.5388 30 20.0128 30C19.4869 30 19.0605 29.5736 19.0605 29.0476V26.4726C15.6379 26.0078 13 23.0738 13 19.5237C13 18.9978 13.4264 18.5714 13.9524 18.5714Z" fill="#525960"/>
</svg>
