<svg width="100%" height="100%" viewBox="0 0 20 20" fill="none" xmlns="http://www.w3.org/2000/svg">
<path d="M20.8045 0H0.804688V20H20.8045V0Z" fill="#295695"/>
<path d="M14.7776 8.06052C15.0003 7.6302 15.1649 7.27823 15.2713 7.0048C15.3776 6.73137 15.4308 6.50353 15.4308 6.32123C15.4308 6.16934 15.413 6.04785 15.3776 5.95672C15.3421 5.86555 15.2763 5.78965 15.1801 5.72888C15.0839 5.66811 14.9523 5.62516 14.7852 5.59975L14.8991 5.09848H18.127L18.013 5.59975C17.846 5.63016 17.6978 5.69088 17.5688 5.78201C17.4396 5.87314 17.3168 5.99467 17.2004 6.14656C17.0839 6.29846 16.9699 6.47195 16.8586 6.66683C16.7472 6.86182 16.5978 7.13392 16.4105 7.4833L12.0586 15.5188H10.2358L10.2207 10.6276V9.33649C10.2207 9.00738 10.2232 8.66315 10.2282 8.30354H10.1295C9.96246 8.6631 9.82061 8.9643 9.70421 9.20732L6.52954 15.5188H4.70672L4.55483 7.43767C4.5446 6.95672 4.50792 6.59211 4.44471 6.344C4.38135 6.09598 4.29663 5.9175 4.19028 5.80855C4.08397 5.69974 3.93453 5.63007 3.74219 5.59971L3.85608 5.09844H7.74468L7.63079 5.59971C7.48384 5.62003 7.35854 5.65416 7.25483 5.70224C7.15097 5.75042 7.06498 5.82128 6.99658 5.9149C6.92822 6.00862 6.88004 6.12884 6.85228 6.27564C6.82437 6.42254 6.80791 6.55661 6.80292 6.67819L6.79533 7.56679L6.76492 10.4225C6.75983 10.8428 6.7471 11.3491 6.72697 11.9415L6.68897 12.8453H6.78769C6.90409 12.5871 7.02944 12.3188 7.16365 12.0402C7.29777 11.7619 7.54211 11.2682 7.89658 10.5592L10.6383 5.09839H12.3016L12.3092 10.0731L12.3168 10.749C12.3168 11.458 12.299 12.1567 12.2637 12.8452H12.3624C12.6003 12.3491 13.0281 11.4908 13.6459 10.2705L14.7776 8.06052Z" fill="white"/>
</svg>
