<svg width="100%" height="100%" viewBox="0 0 56 56" fill="none" xmlns="http://www.w3.org/2000/svg">
<path d="M28.5 54.75C42.9975 54.75 54.75 42.9975 54.75 28.5C54.75 14.0025 42.9975 2.25 28.5 2.25C14.0025 2.25 2.25 14.0025 2.25 28.5C2.25 42.9975 14.0025 54.75 28.5 54.75Z" fill="#F42F4C"/>
<path d="M43.9891 30.5125C42.8516 29.55 40.8391 29.725 39.4391 29.8125C41.0141 29.025 43.4641 27.45 45.1266 28.85C43.9016 27.1875 41.1891 27.7125 39.5266 28.0625C40.9266 27.0125 43.1141 25.175 44.9516 26.225C43.4641 24.7375 40.8391 25.7 39.2641 26.4C40.4891 25.175 42.3266 22.9875 44.3391 23.6875C42.6766 22.4625 40.2266 23.775 38.7391 24.7375C39.7016 23.3375 41.2766 20.8875 43.3766 21.325C41.5391 20.3625 39.3516 22.1125 38.0391 23.1625C38.8266 21.5875 39.8766 18.9625 42.0641 19.05C40.0516 18.4375 38.2141 20.45 37.0766 21.7625C37.6016 20.1 38.2141 17.3 40.4016 17.0375C38.3891 16.6875 36.8141 18.9625 35.9391 20.45C36.2016 18.7 36.3766 15.8125 38.4766 15.2875C36.3766 15.2875 35.2391 17.825 34.5391 19.4C34.5391 17.65 34.2766 14.7625 36.2891 13.8875C34.2766 14.2375 33.4891 16.8625 33.0516 18.525C32.7891 16.775 32.0891 13.975 33.8391 12.8375C31.8266 13.45 31.5641 16.25 31.3891 17.9125C30.8641 16.25 29.7266 13.625 31.3016 12.1375C29.4641 13.1 29.5516 15.8125 29.6391 17.5625C28.8516 15.9875 27.2766 13.5375 28.6766 11.875C27.0141 13.1 27.5391 15.8125 27.8891 17.475C26.8391 16.075 25.0016 13.8875 26.0516 12.05C24.5641 13.5375 25.5266 16.075 26.2266 17.7375C25.0016 16.5125 22.8141 14.675 23.5141 12.6625C22.2891 14.325 23.6016 16.775 24.5641 18.2625C23.1641 17.3 20.7141 15.725 21.1516 13.625C20.1891 15.4625 21.9391 17.65 23.0766 18.9625C21.5016 18.175 18.8766 17.125 18.9641 14.9375C18.3516 16.8625 20.3641 18.7875 21.6766 19.925C20.0141 19.4 17.2141 18.7875 16.9516 16.6C16.6016 18.6125 18.8766 20.1875 20.3641 21.0625C18.6141 20.8 15.7266 20.625 15.2016 18.525C15.2016 20.625 17.7391 21.7625 19.3141 22.4625C17.5641 22.4625 14.6766 22.725 13.8016 20.7125C14.1516 22.725 16.7766 23.5125 18.4391 23.95C16.6891 24.2125 13.8891 24.9125 12.7516 23.1625C13.3641 25.175 16.1641 25.4375 17.8266 25.6125C16.1641 26.1375 13.5391 27.275 12.0516 25.7C13.0141 27.5375 15.7266 27.45 17.4766 27.3625C15.9016 28.15 13.4516 29.725 11.7891 28.325C13.0141 29.9875 15.7266 29.4625 17.3891 29.1125C15.9891 30.1625 13.8016 32 11.9641 30.95C13.4516 32.4375 15.9891 31.475 17.6516 30.775C16.4266 32 14.5891 34.1875 12.5766 33.4875C14.2391 34.7125 16.6891 33.4 18.1766 32.4375C17.2141 33.8375 15.6391 36.2875 13.5391 35.85C15.3766 36.8125 17.5641 35.0625 18.8766 33.925C18.0891 35.5 17.0391 38.125 14.8516 38.0375C16.8641 38.65 18.7016 36.6375 19.8391 35.325C19.3141 36.9875 18.7016 39.7875 16.5141 40.05C18.5266 40.4 20.1016 38.0375 20.9766 36.6375C20.7141 38.3875 20.5391 41.275 18.4391 41.8C20.5391 41.8 21.6766 39.2625 22.3766 37.6875C22.3766 39.4375 22.6391 42.325 20.6266 43.2C22.6391 42.85 23.4266 40.225 23.8641 38.5625C24.1266 40.3125 24.8266 43.1125 23.0766 44.25C25.0891 43.6375 25.3516 40.8375 25.5266 39.175C26.0516 40.8375 27.1891 43.4625 25.6141 44.95C27.4516 43.9875 27.3641 41.275 27.2766 39.525C28.0641 41.1 29.6391 43.55 28.2391 45.2125C29.9016 43.9875 29.3766 41.275 29.0266 39.6125C30.0766 41.0125 31.9141 43.2 30.8641 45.0375C32.3516 43.55 31.3891 41.0125 30.6891 39.35C31.9141 40.575 34.1016 42.4125 33.4016 44.425C34.6266 42.7625 33.3141 40.3125 32.3516 38.825C33.7516 39.7875 36.2016 41.3625 35.7641 43.4625C36.7266 41.625 34.9766 39.4375 33.9266 38.125C35.5016 38.9125 38.1266 39.9625 38.0391 42.15C38.6516 40.1375 36.6391 38.3 35.3266 37.1625C36.9891 37.6875 39.7891 38.3 40.0516 40.4875C40.4016 38.3875 38.0391 36.9 36.6391 36.025C38.3891 36.2875 41.1891 36.4625 41.8016 38.5625C41.8016 36.4625 39.2641 35.325 37.6891 34.625C39.4391 34.625 42.3266 34.3625 43.2016 36.375C42.8516 34.275 40.2266 33.575 38.5641 33.1375C40.3141 32.875 43.1141 32.175 44.2516 33.925C43.6391 32 40.8391 31.5625 39.1766 31.475C40.8391 30.8625 43.4641 29.8125 44.9516 31.3875C44.6891 31.0375 44.3391 30.775 43.9891 30.5125ZM28.5016 39C24.5641 39 20.8891 36.725 19.1391 33.225C17.3016 29.725 17.7391 25.35 20.1016 22.1125C22.4641 18.9625 26.4891 17.3875 30.4266 18.0875C34.2766 18.7875 37.4266 21.675 38.5641 25.35C40.5766 32.0875 35.4141 39 28.5016 39Z" fill="#FFE62E"/>
<path d="M22.2 22.375C20.625 23.95 19.75 26.1375 19.75 28.5C19.75 30.25 20.275 31.9125 21.15 33.3125C21.85 30.075 23.3375 27.1 25.2625 24.65C24.3875 23.775 23.3375 22.9875 22.2 22.375ZM27.8875 21.85C27.1875 21.2375 26.4 20.7125 25.6125 20.1875C25.2625 20.275 24.9125 20.45 24.5625 20.625C25.4375 21.15 26.3125 21.85 27.1875 22.4625C27.3625 22.375 27.625 22.1125 27.8875 21.85ZM26.575 23.1625C25.7 22.375 24.7375 21.7625 23.6875 21.15C23.425 21.325 23.1625 21.5875 22.9 21.7625C23.95 22.375 25 23.075 25.875 23.95C26.05 23.6875 26.3125 23.425 26.575 23.1625ZM25.9625 25.175C23.95 27.8 22.55 30.8625 21.85 34.1875C22.2875 34.625 22.725 35.0625 23.25 35.5C23.6 32 24.825 28.7625 26.75 26.05C26.4875 25.7 26.225 25.4375 25.9625 25.175ZM30.25 26.05C32.175 28.7625 33.4875 32 33.75 35.5C34.275 35.15 34.7125 34.7125 35.15 34.1875C34.5375 30.8625 33.05 27.8 31.0375 25.175C30.775 25.4375 30.5125 25.7 30.25 26.05ZM27.8 26.05C28.0625 26.4 28.325 26.6625 28.5 27.0125C28.7625 26.6625 28.9375 26.4 29.2 26.05C28.9375 25.7875 28.7625 25.4375 28.5 25.175C28.2375 25.4375 27.975 25.7 27.8 26.05ZM30.3375 19.925C29.725 19.8375 29.1125 19.75 28.5 19.75C27.8875 19.75 27.275 19.8375 26.6625 19.925C27.275 20.3625 27.975 20.8 28.5 21.325C29.1125 20.8 29.725 20.3625 30.3375 19.925Z" fill="#FFE62E"/>
<path d="M28.0656 27.8L27.2781 26.75C25.4406 29.4625 24.2156 32.6125 23.9531 36.025L25.5281 36.8125V36.55C25.6156 33.3125 26.4906 30.3375 28.0656 27.8ZM28.5031 23.8625L29.2906 23.075C29.0281 22.8125 28.7656 22.55 28.5031 22.375C28.2406 22.6375 27.9781 22.8125 27.7156 23.075L28.5031 23.8625ZM29.8156 25.35C30.0781 25.0875 30.3406 24.7375 30.6031 24.475C30.3406 24.2125 30.1656 23.95 29.9031 23.6875L29.1156 24.475C29.2906 24.825 29.5531 25.0875 29.8156 25.35ZM27.1906 23.775C26.9281 24.0375 26.7531 24.3 26.4906 24.5625C26.7531 24.825 27.0156 25.0875 27.2781 25.4375C27.5406 25.175 27.7156 24.825 27.9781 24.5625C27.7156 24.2125 27.4531 23.95 27.1906 23.775Z" fill="#FFE62E"/>
<path d="M28.5023 28.5875C27.1898 30.95 26.4023 33.6625 26.4023 36.4625V36.9875C27.1023 37.1625 27.8023 37.25 28.5023 37.25C29.5523 37.25 29.9023 37.1625 30.6023 36.9875V36.4625C30.6023 33.575 29.8148 30.8625 28.5023 28.5875ZM29.0273 27.8C30.6023 30.3375 31.4773 33.3125 31.4773 36.55V36.8125C32.0023 36.6375 32.6148 36.375 33.0523 36.025C32.7898 32.6125 31.6523 29.4625 29.7273 26.75C29.4648 27.0125 29.2023 27.3625 29.0273 27.8ZM29.9023 22.55C30.6898 21.85 31.5648 21.2375 32.5273 20.7125C32.1773 20.5375 31.8273 20.3625 31.4773 20.275C30.6898 20.8 29.9023 21.325 29.2023 21.9375C29.3773 22.1125 29.6398 22.375 29.9023 22.55ZM35.8523 33.3125C36.7273 31.9125 37.2523 30.25 37.2523 28.5C37.2523 26.1375 36.2898 23.95 34.8023 22.375C33.6648 22.9875 32.6148 23.6875 31.7398 24.5625C33.6648 27.1 35.0648 30.075 35.8523 33.3125ZM31.1273 23.95C32.0023 23.1625 33.0523 22.375 34.1023 21.7625C33.8398 21.5 33.5773 21.325 33.3148 21.15C32.2648 21.7625 31.3898 22.375 30.4273 23.1625C30.6898 23.425 30.9523 23.6875 31.1273 23.95Z" fill="#FFE62E"/>
</svg>
