<svg width="100%" height="100%" viewBox="0 0 56 56" fill="none" xmlns="http://www.w3.org/2000/svg">
<path d="M27.654 5.74998C15.4718 5.93592 5.5165 15.8278 5.25181 28.0078C5.15972 32.1044 6.18112 36.1492 8.20713 39.7109C8.2866 39.8503 8.40288 39.9652 8.54324 40.043C8.68361 40.1207 8.84266 40.1584 9.003 40.1518C9.16333 40.1453 9.31878 40.0948 9.45233 40.0058C9.58589 39.9169 9.69241 39.7929 9.76025 39.6475C11.4038 36.1612 12.2547 32.3542 12.2518 28.5C12.2503 24.693 13.629 21.0146 16.1324 18.1465C16.4154 17.8095 16.8122 17.5879 17.2476 17.5238C17.683 17.4597 18.1268 17.5575 18.4949 17.7987C18.7001 17.9391 18.8729 18.1215 19.0021 18.3338C19.1312 18.5462 19.2136 18.7836 19.2438 19.0303C19.2741 19.277 19.2514 19.5273 19.1773 19.7646C19.1033 20.0018 18.9795 20.2205 18.8143 20.4062C16.8414 22.6409 15.7524 25.519 15.7518 28.5C15.7586 33.7508 14.3663 38.9087 11.7181 43.4428C11.6199 43.6095 11.5797 43.8041 11.6039 43.996C11.628 44.188 11.7151 44.3665 11.8515 44.5037C12.7198 45.3844 13.6584 46.1928 14.6581 46.9209C14.7569 46.9934 14.8699 47.0443 14.9898 47.0703C15.1096 47.0963 15.2335 47.0969 15.3535 47.0719C15.4736 47.047 15.587 46.9971 15.6865 46.9255C15.786 46.8539 15.8694 46.7621 15.9312 46.6562C16.8694 45.1176 17.687 43.5086 18.3768 41.8437C18.4644 41.6312 18.5931 41.4379 18.7554 41.2751C18.9177 41.1122 19.1104 40.9829 19.3227 40.8945C19.535 40.8062 19.7626 40.7605 19.9925 40.7601C20.2224 40.7597 20.4502 40.8046 20.6628 40.8922C20.8753 40.9798 21.0686 41.1084 21.2314 41.2707C21.3943 41.433 21.5236 41.6258 21.612 41.8381C21.7003 42.0503 21.746 42.2779 21.7464 42.5079C21.7468 42.7378 21.7019 42.9655 21.6143 43.1781C20.8794 44.9566 20.013 46.6778 19.0221 48.3275C18.9579 48.4351 18.9175 48.5553 18.9037 48.6799C18.89 48.8045 18.9031 48.9306 18.9423 49.0496C18.9815 49.1687 19.0459 49.2779 19.131 49.37C19.2161 49.462 19.3199 49.5347 19.4356 49.5831C21.19 50.2986 23.0273 50.7909 24.9043 51.0487C25.0796 51.0745 25.2585 51.0465 25.4175 50.9683C25.5764 50.8902 25.708 50.7657 25.7946 50.6112C29.0008 44.8507 30.9098 38.4593 31.3881 31.884C31.3977 31.6498 31.4544 31.4199 31.5546 31.208C31.6548 30.996 31.7966 30.8064 31.9715 30.6503C32.1465 30.4943 32.351 30.3749 32.5729 30.2994C32.7949 30.2239 33.0297 30.1938 33.2635 30.2108C33.4973 30.2278 33.7253 30.2916 33.934 30.3984C34.1427 30.5053 34.3278 30.6529 34.4783 30.8327C34.6288 31.0124 34.7417 31.2205 34.8102 31.4447C34.8787 31.6689 34.9015 31.9046 34.8771 32.1378C34.432 38.2709 32.8303 44.2644 30.1565 49.8019C30.0866 49.9435 30.0563 50.1014 30.0689 50.2588C30.0815 50.4163 30.1364 50.5674 30.2279 50.6961C30.3194 50.8248 30.4441 50.9264 30.5886 50.99C30.7332 51.0536 30.8923 51.077 31.049 51.0575C32.5841 50.8513 34.0941 50.4885 35.5553 49.9747C35.6702 49.9337 35.7754 49.8691 35.8639 49.7851C35.9524 49.7011 36.0224 49.5995 36.0693 49.4869C38.7972 42.9591 40.2182 35.9597 40.2518 28.885C40.2999 22.1825 35.1331 16.4884 28.4393 16.2565C27.2606 16.2156 26.0821 16.3431 24.9393 16.635C24.7085 16.6942 24.468 16.7057 24.2325 16.6687C23.9971 16.6318 23.7717 16.5471 23.5702 16.4199C23.3686 16.2927 23.1952 16.1257 23.0605 15.9291C22.9258 15.7325 22.8327 15.5104 22.7868 15.2765C22.7106 14.8232 22.8106 14.3579 23.0664 13.976C23.3223 13.5941 23.7145 13.3245 24.1628 13.2225C26.4857 12.6409 28.9107 12.5962 31.2535 13.0919C33.5963 13.5876 35.7953 14.6106 37.6836 16.0833C39.5719 17.556 41.0998 19.4396 42.1512 21.5911C43.2027 23.7425 43.7501 26.1053 43.7518 28.5C43.7571 34.0251 42.9718 39.5226 41.4199 44.8253C41.3658 45.0072 41.3722 45.2017 41.4382 45.3796C41.5043 45.5575 41.6264 45.7091 41.7861 45.8116C41.9459 45.914 42.1346 45.9618 42.3238 45.9476C42.513 45.9335 42.6925 45.8582 42.8353 45.7331C46.3746 42.6838 48.8894 38.6187 50.0379 34.0903C51.1864 29.5619 50.9129 24.7897 49.2546 20.4221C47.5962 16.0545 44.6335 12.3034 40.7689 9.67839C36.9043 7.05338 32.3253 5.68179 27.654 5.74998ZM28.0018 21.5C28.9866 21.5008 29.9601 21.7091 30.8591 22.1112C31.758 22.5134 32.5621 23.1004 33.219 23.834C33.3818 24.0161 33.5048 24.2303 33.5798 24.4627C33.6549 24.6952 33.6805 24.9408 33.655 25.1837C33.6294 25.4266 33.5533 25.6615 33.4315 25.8733C33.3097 26.085 33.1449 26.2689 32.9478 26.4131C32.5838 26.6637 32.1407 26.7723 31.7021 26.7183C31.2636 26.6642 30.86 26.4514 30.5678 26.12C30.1108 25.6274 29.5216 25.2768 28.8707 25.11C28.2199 24.9432 27.5347 24.9673 26.8971 25.1794C26.1874 25.4264 25.5733 25.8903 25.1415 26.5054C24.7097 27.1205 24.4821 27.8557 24.4909 28.6072C24.4846 31.03 24.251 33.4468 23.7931 35.8259C23.7179 36.2227 23.5078 36.5813 23.1984 36.8408C22.889 37.1004 22.4994 37.2449 22.0956 37.25C21.9855 37.2505 21.8756 37.2403 21.7674 37.2194C21.3082 37.1149 20.9076 36.8361 20.65 36.4419C20.3925 36.0476 20.2982 35.5687 20.3871 35.1062C20.7995 32.9284 21.0053 30.7165 21.0018 28.5C21.0018 26.6435 21.7393 24.863 23.0521 23.5502C24.3648 22.2375 26.1453 21.5 28.0018 21.5Z" fill="#525960"/>
</svg>
