<svg width="100%" height="100%" viewBox="0 0 100 80" fill="none" xmlns="http://www.w3.org/2000/svg">
<rect y="0.5" width="100" height="80" fill="#525960"/>
<path d="M47.2021 38.1221H49.3848C50.1562 38.1221 50.791 37.9902 51.2891 37.7266C51.7969 37.4531 52.1729 37.082 52.417 36.6133C52.6709 36.1348 52.7979 35.583 52.7979 34.958C52.7979 34.3428 52.6855 33.8105 52.4609 33.3613C52.2363 32.9023 51.8945 32.5508 51.4355 32.3066C50.9863 32.0527 50.4102 31.9258 49.707 31.9258C49.1406 31.9258 48.6182 32.0381 48.1396 32.2627C47.6709 32.4873 47.2949 32.8096 47.0117 33.2295C46.7383 33.6396 46.6016 34.1328 46.6016 34.709H42.7197C42.7197 33.5566 43.0225 32.5459 43.6279 31.6768C44.2432 30.7979 45.0732 30.1094 46.1182 29.6113C47.1631 29.1133 48.3301 28.8643 49.6191 28.8643C51.0254 28.8643 52.2559 29.0986 53.3105 29.5674C54.375 30.0264 55.2002 30.7051 55.7861 31.6035C56.3818 32.502 56.6797 33.6152 56.6797 34.9434C56.6797 35.5781 56.5283 36.2129 56.2256 36.8477C55.9326 37.4727 55.498 38.0391 54.9219 38.5469C54.3555 39.0449 53.6572 39.4502 52.8271 39.7627C52.0068 40.0654 51.0645 40.2168 50 40.2168H47.2021V38.1221ZM47.2021 41.1104V39.0449H50C51.2012 39.0449 52.2412 39.1865 53.1201 39.4697C54.0088 39.7432 54.7412 40.1338 55.3174 40.6416C55.8936 41.1396 56.3184 41.7207 56.5918 42.3848C56.875 43.0488 57.0166 43.7617 57.0166 44.5234C57.0166 45.5195 56.8311 46.4082 56.46 47.1895C56.0889 47.9609 55.5664 48.6152 54.8926 49.1523C54.2285 49.6895 53.4473 50.0996 52.5488 50.3828C51.6504 50.6562 50.6787 50.793 49.6338 50.793C48.7256 50.793 47.8418 50.6709 46.9824 50.4268C46.1328 50.1729 45.3662 49.7969 44.6826 49.2988C43.999 48.791 43.457 48.1562 43.0566 47.3945C42.6562 46.623 42.4561 45.7295 42.4561 44.7139H46.3379C46.3379 45.2998 46.4795 45.8223 46.7627 46.2812C47.0557 46.7402 47.4561 47.1016 47.9639 47.3652C48.4814 47.6191 49.0625 47.7461 49.707 47.7461C50.4199 47.7461 51.0303 47.6191 51.5381 47.3652C52.0557 47.1016 52.4512 46.7305 52.7246 46.252C52.998 45.7637 53.1348 45.1826 53.1348 44.5088C53.1348 43.708 52.9834 43.0586 52.6807 42.5605C52.3779 42.0625 51.9434 41.6963 51.377 41.4619C50.8203 41.2275 50.1562 41.1104 49.3848 41.1104H47.2021Z" fill="white"/>
</svg>
