<svg width="100%" height="100%" viewBox="0 0 300 160" fill="none" xmlns="http://www.w3.org/2000/svg">
<rect width="300" height="160" fill="url(#paint0_linear_1471_26597)"/>
<g opacity="0.5">
<path d="M126.792 23.9583C126.792 20.6676 129.459 18 132.75 18H168.5C171.791 18 174.458 20.6676 174.458 23.9583C174.458 27.249 171.791 29.9167 168.5 29.9167H132.75C129.459 29.9167 126.792 27.249 126.792 23.9583Z" fill="#0765E1"/>
<path d="M156.583 65.6667C156.583 62.376 153.916 59.7083 150.625 59.7083C147.334 59.7083 144.667 62.376 144.667 65.6667L144.667 95.4583C144.667 98.749 147.334 101.417 150.625 101.417C153.916 101.417 156.583 98.749 156.583 95.4583V65.6667Z" fill="#0765E1"/>
<path fill-rule="evenodd" clip-rule="evenodd" d="M204.25 89.5C204.25 119.116 180.241 143.125 150.625 143.125C121.009 143.125 97 119.116 97 89.5C97 59.8837 121.009 35.875 150.625 35.875C163.287 35.875 174.923 40.2631 184.097 47.6016L188.12 43.5785C190.447 41.2516 194.22 41.2516 196.547 43.5785C198.873 45.9054 198.873 49.678 196.547 52.0048L192.523 56.028C199.862 65.2018 204.25 76.8385 204.25 89.5ZM192.333 89.5C192.333 112.535 173.66 131.208 150.625 131.208C127.59 131.208 108.917 112.535 108.917 89.5C108.917 66.4651 127.59 47.7917 150.625 47.7917C173.66 47.7917 192.333 66.4651 192.333 89.5Z" fill="#0765E1"/>
</g>
<defs>
<linearGradient id="paint0_linear_1471_26597" x1="6" y1="5.5" x2="300" y2="160" gradientUnits="userSpaceOnUse">
<stop stop-color="#4091FD"/>
<stop offset="1" stop-color="#0765E1"/>
</linearGradient>
</defs>
</svg>
